HIERARCHY
ROOT Hips
{
	OFFSET 0.000000 100.481300 0.000000
	CHANNELS 6 Xposition Yposition Zposition Xrotation Yrotation Zrotation 
	JOINT Spine
	{
		OFFSET -0.279200 12.230698 -2.892100
		CHANNELS 3 Xrotation Yrotation Zrotation
		JOINT Spine1
		{
			OFFSET -0.232667 10.192268 -1.242267
			CHANNELS 3 Xrotation Yrotation Zrotation
			JOINT Spine1_split
			{
				OFFSET -0.232667 10.192268 -1.242267
				CHANNELS 3 Xrotation Yrotation Zrotation
				JOINT Spine2
				{
					OFFSET -0.232667 10.192268 -1.242267
					CHANNELS 3 Xrotation Yrotation Zrotation
					JOINT Neck
					{
						OFFSET -0.418800 17.814194 8.416900
						CHANNELS 3 Xrotation Yrotation Zrotation
						JOINT Head
						{
							OFFSET 0.000000 7.031097 3.806800
							CHANNELS 3 Xrotation Yrotation Zrotation
							JOINT HeadTop_End
							{
								OFFSET 0.000000 24.646606 12.978600
								CHANNELS 3 Xrotation Yrotation Zrotation
								End Site
								{
									OFFSET 0.000000 0.000000 0.000000
								}
							}
						}
					}
					JOINT LeftShoulder
					{
						OFFSET 8.476499 7.247704 -3.868750
						CHANNELS 3 Xrotation Yrotation Zrotation
						JOINT LeftShoulder_split
						{
							OFFSET 8.476499 7.247704 -3.868750
							CHANNELS 3 Xrotation Yrotation Zrotation
							JOINT LeftArm
							{
								OFFSET 9.308998 -2.777710 0.208600
								CHANNELS 3 Xrotation Yrotation Zrotation
								JOINT LeftForeArm
								{
									OFFSET 29.972298 0.000000 0.000000
									CHANNELS 3 Xrotation Yrotation Zrotation
									JOINT LeftHand
									{
										OFFSET 26.026505 0.000000 0.000000
										CHANNELS 3 Xrotation Yrotation Zrotation
										JOINT LeftHandThumb1
										{
											OFFSET 12.240501 -7.147949 9.207150
											CHANNELS 3 Xrotation Yrotation Zrotation
											JOINT LeftHandThumb2
											{
												OFFSET 4.138618 -2.389435 2.389433
												CHANNELS 3 Xrotation Yrotation Zrotation
												JOINT LeftHandThumb3
												{
													OFFSET 2.726913 -1.574387 1.574386
													CHANNELS 3 Xrotation Yrotation Zrotation
													JOINT LeftHandThumb4
													{
														OFFSET 3.941010 -2.275345 2.275342
														CHANNELS 3 Xrotation Yrotation Zrotation
														End Site
														{
															OFFSET 0.000000 0.000000 0.000000
														}
													}
												}
											}
										}
										JOINT LeftHandIndex1
										{
											OFFSET 24.424698 -1.985611 5.953459
											CHANNELS 3 Xrotation Yrotation Zrotation
											JOINT LeftHandIndex2
											{
												OFFSET 6.426697 0.000000 0.000000
												CHANNELS 3 Xrotation Yrotation Zrotation
												JOINT LeftHandIndex3
												{
													OFFSET 5.337898 0.000000 0.000000
													CHANNELS 3 Xrotation Yrotation Zrotation
													JOINT LeftHandIndex4
													{
														OFFSET 4.409401 0.000000 0.000000
														CHANNELS 3 Xrotation Yrotation Zrotation
														End Site
														{
															OFFSET 0.000000 0.000000 0.000000
														}
													}
												}
											}
										}
										JOINT LeftHandMiddle1
										{
											OFFSET 23.810104 0.000000 0.000000
											CHANNELS 3 Xrotation Yrotation Zrotation
											JOINT LeftHandMiddle2
											{
												OFFSET 7.176498 0.000000 0.000000
												CHANNELS 3 Xrotation Yrotation Zrotation
												JOINT LeftHandMiddle3
												{
													OFFSET 6.774902 0.000000 0.000000
													CHANNELS 3 Xrotation Yrotation Zrotation
													JOINT LeftHandMiddle4
													{
														OFFSET 5.403328 0.000000 0.000000
														CHANNELS 3 Xrotation Yrotation Zrotation
														End Site
														{
															OFFSET 0.000000 0.000000 0.000000
														}
													}
												}
											}
										}
										JOINT LeftHandRing1
										{
											OFFSET 22.908401 -0.839279 -6.020567
											CHANNELS 3 Xrotation Yrotation Zrotation
											JOINT LeftHandRing2
											{
												OFFSET 6.337502 0.000000 0.000000
												CHANNELS 3 Xrotation Yrotation Zrotation
												JOINT LeftHandRing3
												{
													OFFSET 5.779297 0.000000 0.000000
													CHANNELS 3 Xrotation Yrotation Zrotation
													JOINT LeftHandRing4
													{
														OFFSET 4.965698 0.000000 0.000000
														CHANNELS 3 Xrotation Yrotation Zrotation
														End Site
														{
															OFFSET 0.000000 0.000000 0.000000
														}
													}
												}
											}
										}
										JOINT LeftHandPinky1
										{
											OFFSET 20.037003 -1.530319 -10.950146
											CHANNELS 3 Xrotation Yrotation Zrotation
											JOINT LeftHandPinky2
											{
												OFFSET 5.254700 0.000000 0.000000
												CHANNELS 3 Xrotation Yrotation Zrotation
												JOINT LeftHandPinky3
												{
													OFFSET 4.810204 0.000000 0.000000
													CHANNELS 3 Xrotation Yrotation Zrotation
													JOINT LeftHandPinky4
													{
														OFFSET 3.647202 0.000000 0.000000
														CHANNELS 3 Xrotation Yrotation Zrotation
														End Site
														{
															OFFSET 0.000000 0.000000 0.000000
														}
													}
												}
											}
										}
									}
								}
							}
						}
					}
					JOINT RightShoulder
					{
						OFFSET -7.570500 7.247704 -3.868750
						CHANNELS 3 Xrotation Yrotation Zrotation
						JOINT RightShoulder_split
						{
							OFFSET -7.570500 7.247704 -3.868750
							CHANNELS 3 Xrotation Yrotation Zrotation
							JOINT RightArm
							{
								OFFSET -9.308998 -2.777710 0.208500
								CHANNELS 3 Xrotation Yrotation Zrotation
								JOINT RightForeArm
								{
									OFFSET -29.972300 0.000000 0.000000
									CHANNELS 3 Xrotation Yrotation Zrotation
									JOINT RightHand
									{
										OFFSET -26.026505 0.000000 0.000000
										CHANNELS 3 Xrotation Yrotation Zrotation
										JOINT RightHandThumb1
										{
											OFFSET -12.240601 -7.148026 9.207092
											CHANNELS 3 Xrotation Yrotation Zrotation
											JOINT RightHandThumb2
											{
												OFFSET -4.138618 -2.389435 2.389433
												CHANNELS 3 Xrotation Yrotation Zrotation
												JOINT RightHandThumb3
												{
													OFFSET -2.726974 -1.574417 1.574421
													CHANNELS 3 Xrotation Yrotation Zrotation
													JOINT RightHandThumb4
													{
														OFFSET -3.941010 -2.275345 2.275343
														CHANNELS 3 Xrotation Yrotation Zrotation
														End Site
														{
															OFFSET 0.000000 0.000000 0.000000
														}
													}
												}
											}
										}
										JOINT RightHandIndex1
										{
											OFFSET -24.424698 -1.985657 5.953444
											CHANNELS 3 Xrotation Yrotation Zrotation
											JOINT RightHandIndex2
											{
												OFFSET -6.426697 0.000000 0.000000
												CHANNELS 3 Xrotation Yrotation Zrotation
												JOINT RightHandIndex3
												{
													OFFSET -5.337898 0.000000 0.000000
													CHANNELS 3 Xrotation Yrotation Zrotation
													JOINT RightHandIndex4
													{
														OFFSET -4.409401 0.000000 0.000000
														CHANNELS 3 Xrotation Yrotation Zrotation
														End Site
														{
															OFFSET 0.000000 0.000000 0.000000
														}
													}
												}
											}
										}
										JOINT RightHandMiddle1
										{
											OFFSET -23.810097 0.000000 0.000000
											CHANNELS 3 Xrotation Yrotation Zrotation
											JOINT RightHandMiddle2
											{
												OFFSET -7.176498 0.000000 0.000000
												CHANNELS 3 Xrotation Yrotation Zrotation
												JOINT RightHandMiddle3
												{
													OFFSET -6.774902 0.000000 0.000000
													CHANNELS 3 Xrotation Yrotation Zrotation
													JOINT RightHandMiddle4
													{
														OFFSET -5.403328 0.000000 0.000000
														CHANNELS 3 Xrotation Yrotation Zrotation
														End Site
														{
															OFFSET 0.000000 0.000000 0.000000
														}
													}
												}
											}
										}
										JOINT RightHandRing1
										{
											OFFSET -22.908302 -0.839325 -6.020576
											CHANNELS 3 Xrotation Yrotation Zrotation
											JOINT RightHandRing2
											{
												OFFSET -6.337502 0.000000 0.000000
												CHANNELS 3 Xrotation Yrotation Zrotation
												JOINT RightHandRing3
												{
													OFFSET -5.779297 0.000000 0.000000
													CHANNELS 3 Xrotation Yrotation Zrotation
													JOINT RightHandRing4
													{
														OFFSET -4.965698 0.000000 0.000000
														CHANNELS 3 Xrotation Yrotation Zrotation
														End Site
														{
															OFFSET 0.000000 0.000000 0.000000
														}
													}
												}
											}
										}
										JOINT RightHandPinky1
										{
											OFFSET -20.037003 -1.530334 -10.950259
											CHANNELS 3 Xrotation Yrotation Zrotation
											JOINT RightHandPinky2
											{
												OFFSET -5.254700 0.000000 0.000000
												CHANNELS 3 Xrotation Yrotation Zrotation
												JOINT RightHandPinky3
												{
													OFFSET -4.810204 0.000000 0.000000
													CHANNELS 3 Xrotation Yrotation Zrotation
													JOINT RightHandPinky4
													{
														OFFSET -3.647202 0.000000 0.000000
														CHANNELS 3 Xrotation Yrotation Zrotation
														End Site
														{
															OFFSET 0.000000 0.000000 0.000000
														}
													}
												}
											}
										}
									}
								}
							}
						}
					}
				}
			}
		}
	}
	JOINT LeftUpLeg
	{
		OFFSET 15.427100 -6.655098 0.678600
		CHANNELS 3 Xrotation Yrotation Zrotation
		JOINT LeftLeg
		{
			OFFSET 4.081073 -39.591068 13.024000
			CHANNELS 3 Xrotation Yrotation Zrotation
			JOINT LeftFoot
			{
				OFFSET -4.081074 -37.707932 -15.979700
				CHANNELS 3 Xrotation Yrotation Zrotation
				JOINT LeftToeBase
				{
					OFFSET 5.346399 -15.068900 20.645000
					CHANNELS 3 Xrotation Yrotation Zrotation
					JOINT LeftToe_End
					{
						OFFSET 2.754700 0.931300 11.300900
						CHANNELS 3 Xrotation Yrotation Zrotation
						End Site
						{
							OFFSET 0.000000 0.000000 0.000000
						}
					}
				}
			}
		}
	}
	JOINT RightUpLeg
	{
		OFFSET -15.569500 -6.655098 0.678600
		CHANNELS 3 Xrotation Yrotation Zrotation
		JOINT RightLeg
		{
			OFFSET -4.081825 -39.591045 13.023800
			CHANNELS 3 Xrotation Yrotation Zrotation
			JOINT RightFoot
			{
				OFFSET 4.081824 -37.707954 -15.979600
				CHANNELS 3 Xrotation Yrotation Zrotation
				JOINT RightToeBase
				{
					OFFSET -5.346400 -15.068900 20.645000
					CHANNELS 3 Xrotation Yrotation Zrotation
					JOINT RightToe_End
					{
						OFFSET -2.754700 0.931300 11.300900
						CHANNELS 3 Xrotation Yrotation Zrotation
						End Site
						{
							OFFSET 0.000000 0.000000 0.000000
						}
					}
				}
			}
		}
	}
}
MOTION
Frames: 4
Frame Time: 0.016667
2.775778 73.360275 29.462017 11.342772 -0.540891 -7.621377 9.941606 1.419104 9.815702 2.029114 -0.047010 0.508499 0.000000 0.000000 0.000000 4.987196 -0.052526 0.186540 -3.841289 -0.341669 -0.277916 -16.135762 0.809280 -3.139612 -0.000000 0.000000 0.000000 0.557757 -4.314608 -11.777486 0.000000 0.000000 0.000000 13.923814 -4.816980 -56.121390 -0.000000 -89.999982 0.000001 3.946684 -2.534498 11.903179 -0.820501 6.623777 -5.864584 14.168490 15.386710 18.402778 -0.847677 -39.830433 12.903379 -0.000000 -0.000000 0.000000 9.947274 5.735759 -90.836257 4.054214 5.569231 -72.086404 5.462399 5.838174 -86.184795 -0.000001 0.000000 -0.000000 4.883436 8.107992 -80.603363 4.657602 5.728457 -78.210789 3.078727 5.154600 -61.676103 0.000000 -0.000001 -0.000001 2.753115 7.678694 -78.443514 5.946871 5.850276 -90.939884 3.878861 5.509739 -70.270161 0.000001 0.000000 -0.000001 7.311286 13.596491 -78.537244 4.413847 5.672403 -75.756954 4.171600 5.605652 -73.291960 -0.000001 0.000002 -0.000003 0.567971 4.488693 11.813871 0.000000 0.000000 0.000000 -16.187041 25.518743 44.451172 -0.110599 90.271680 0.111100 7.843975 11.318563 -12.809359 5.535797 -3.771048 -3.032812 2.457538 -9.078646 -15.939568 -8.950787 17.083968 -15.511805 -0.000003 0.000002 -0.000000 -3.723516 -3.298342 73.104990 3.463122 -4.501829 75.128488 2.055814 -3.864262 56.013890 0.000001 -0.000001 0.000000 -3.073208 -4.980227 74.622337 3.766063 -4.571286 78.957014 3.246658 -4.438887 72.351941 -0.000000 0.000000 -0.000001 -3.819523 -5.359656 78.849541 3.124240 -4.398156 70.762850 2.797510 -4.270504 66.441874 -0.000000 -0.000003 0.000003 -1.443997 -6.451707 84.219538 3.515545 -4.515377 75.795081 1.230069 -3.155317 42.587193 -0.000000 0.000000 0.000001 -43.368607 -5.791053 11.235729 122.634462 1.716299 -2.490789 -2.984970 0.831177 -2.405677 -0.230023 0.000004 -0.000001 -0.000000 -0.000000 -0.000000 -40.302802 -13.471689 8.800300 60.022118 -0.998576 0.158958 -30.294355 2.631114 -7.184735 1.449332 0.000002 0.000002 -0.000000 0.000000 0.000000 
2.781526 72.870857 38.228519 12.133347 -1.814587 -6.598787 10.747045 3.255400 8.215620 2.512571 0.388421 -0.101537 0.000000 0.000000 0.000000 5.375365 0.319863 -0.444561 -4.070067 -0.572483 0.096464 -17.422076 0.090383 -1.909409 0.000001 -0.000000 -0.000000 0.550763 -4.131759 -11.649548 0.000000 0.000000 0.000000 15.857058 -4.083516 -55.500526 0.000093 -84.180845 0.000085 -0.007472 -3.522495 9.556825 -0.816960 6.649058 -5.842817 14.164842 15.374437 18.442511 -0.841097 -39.967412 12.911050 -0.000001 0.000000 -0.000000 10.008344 5.729141 -90.997927 4.064123 5.572413 -72.188474 5.480196 5.839321 -86.359641 -0.000003 0.000000 -0.000001 4.897400 8.110477 -80.744010 4.669148 5.730850 -78.326294 3.089604 5.160409 -61.797059 -0.000001 0.000001 -0.000003 2.740985 7.681203 -78.578936 5.961409 5.850010 -91.082471 3.892310 5.514517 -70.410057 -0.000002 0.000003 -0.000002 7.299112 13.584398 -78.671847 4.424739 5.675138 -75.867098 4.185902 5.609908 -73.438474 -0.000003 0.000001 -0.000000 0.473730 5.340372 11.212079 0.000000 0.000000 0.000000 -18.532571 23.013668 45.080724 0.003394 92.047311 -0.003332 6.621897 11.435213 -18.486764 5.528117 -3.804568 -3.069134 2.442958 -9.034354 -15.978954 -8.976921 17.201024 -15.498565 -0.000000 -0.000002 0.000002 -3.685730 -3.342033 73.312368 3.475274 -4.505007 75.283096 2.065108 -3.870494 56.151655 -0.000000 0.000000 -0.000001 -3.084173 -5.003696 74.836539 3.779338 -4.573869 79.123937 3.261411 -4.443548 72.542456 0.000002 0.000002 0.000000 -3.868924 -5.381846 79.076761 3.134964 -4.401892 70.902677 2.810291 -4.276042 66.613278 0.000001 0.000003 -0.000001 -1.521165 -6.464702 84.494795 3.527872 -4.518467 75.951820 1.235274 -3.160954 42.681637 0.000002 -0.000001 -0.000000 -66.163537 -7.299931 12.393250 120.685973 1.767509 -3.826674 -0.631820 -0.847892 0.619068 0.255884 0.000004 -0.000003 0.000002 0.000000 0.000000 -32.352960 -11.595549 9.817865 60.507041 -0.860049 -0.332504 -38.386886 2.891428 -7.697051 0.763453 -0.008802 1.069884 0.000000 -0.000000 0.000000 
2.776317 73.085915 46.022064 12.469336 -2.533089 -5.447426 11.515596 4.524252 6.401341 2.983597 0.736435 -0.674760 0.000000 0.000000 0.000000 5.744164 0.609385 -1.028370 -3.883336 -0.735808 0.343319 -18.155242 -0.681946 -0.632056 -0.000000 0.000000 0.000000 0.538968 -4.141282 -11.327450 0.000000 0.000000 0.000000 18.370851 -3.661168 -55.120873 0.000023 -80.178833 0.000041 -2.644605 -4.276823 7.635047 -0.807172 6.718948 -5.782592 14.154862 15.340490 18.552307 -0.825566 -40.346225 12.932256 0.000004 0.000002 0.000000 10.177109 5.709222 -91.444847 4.091552 5.581116 -72.470711 5.529388 5.842238 -86.843048 -0.000003 -0.000000 0.000000 4.935996 8.117140 -81.132880 4.701054 5.737317 -78.645728 3.119727 5.176398 -62.131424 -0.000002 -0.000000 -0.000001 2.707405 7.688525 -78.953305 6.001569 5.849124 -91.476703 3.929506 5.527572 -70.796775 0.000001 0.000000 0.000000 7.265159 13.551528 -79.043956 4.454870 5.682604 -76.171629 4.225554 5.621483 -73.843600 -0.000002 0.000001 -0.000002 0.447440 5.899439 10.987406 0.000000 0.000000 0.000000 -20.430609 18.612561 45.715201 -0.000328 95.070585 0.000332 7.385904 12.237851 -22.965992 5.508440 -3.890096 -3.161993 2.405783 -8.921133 -16.079544 -9.044122 17.500104 -15.464375 -0.000001 0.000000 -0.000000 -3.588216 -3.452423 73.842582 3.506335 -4.513038 75.678175 2.088929 -3.886330 56.503710 -0.000001 -0.000000 0.000000 -3.111895 -5.064230 75.383876 3.813411 -4.580253 79.550558 3.299179 -4.455201 73.029325 -0.000001 0.000000 0.000000 -3.994942 -5.440478 79.657252 3.162440 -4.411286 71.260033 2.843008 -4.290017 67.051414 -0.000001 -0.000000 -0.000000 -1.718435 -6.501692 85.197867 3.559432 -4.526224 76.352390 1.248599 -3.175352 42.922937 0.000002 0.000004 -0.000001 -83.435501 -4.533136 11.296677 114.667702 2.568751 -3.478813 -0.716588 -1.710823 1.378248 1.925044 -0.000000 0.000002 0.000002 0.000001 -0.000001 -24.071328 -9.497233 10.235615 58.366992 0.619251 -0.643236 -43.675699 1.300973 -8.711841 0.152202 -0.019698 1.598000 -0.000000 0.000000 -0.000000 
2.816210 73.683350 52.634220 12.160523 -2.851138 -4.865673 12.068339 5.508004 5.114041 3.317695 1.004296 -1.066091 0.000000 0.000000 0.000000 5.969670 0.834222 -1.426133 -3.184220 -0.852758 0.456090 -17.958347 -1.476782 0.463307 0.000001 0.000000 -0.000000 0.522139 -4.229543 -10.713357 0.000000 0.000000 0.000000 21.185307 -3.140018 -55.477569 -0.000018 -77.628269 -0.000015 -2.809231 -4.161615 6.201260 -0.792421 6.824521 -5.691688 14.140007 15.289249 18.718267 -0.799453 -40.918663 12.965679 0.000003 0.000001 -0.000002 10.431879 5.674551 -92.119588 4.133068 5.593989 -72.897120 5.603739 5.845836 -87.573270 0.000000 0.000002 -0.000002 4.994382 8.126714 -81.720345 4.749334 5.746756 -79.128254 3.165406 5.200194 -62.636550 -0.000000 -0.000001 0.000002 2.656621 7.700851 -79.518811 6.062260 5.847262 -92.072193 3.985892 5.546782 -71.381009 -0.000000 0.000000 -0.000001 7.213176 13.503592 -79.606094 4.500468 5.693586 -76.631669 4.285592 5.638448 -74.455592 0.000002 -0.000000 0.000002 0.476053 6.147944 11.241235 0.000000 0.000000 0.000000 -21.265166 13.374090 46.275426 0.000043 97.989924 -0.000032 9.380811 14.068444 -25.678523 5.481889 -4.005284 -3.287304 2.355688 -8.768396 -16.214975 -9.135588 17.903034 -15.417533 -0.000001 0.000000 0.000003 -3.454678 -3.598500 74.557799 3.548264 -4.523502 76.210677 2.121179 -3.907416 56.978265 -0.000002 0.000001 -0.000003 -3.148563 -5.147004 76.121502 3.859385 -4.588471 80.125550 3.350244 -4.470434 73.685542 0.000004 0.000002 -0.000003 -4.164351 -5.524046 80.439117 3.199524 -4.423650 71.741684 2.887287 -4.308441 67.641945 0.000004 0.000001 0.000000 -1.984447 -6.560243 86.144600 3.602122 -4.536351 76.892323 1.266689 -3.194628 43.248181 0.000002 0.000002 0.000000 -91.519160 -2.310249 9.933454 105.330581 1.097793 -3.442932 -4.585647 -1.497921 -1.498835 3.699715 -0.000003 0.000003 0.000002 0.000000 0.000000 -16.366105 -7.906192 10.570376 55.038658 2.222827 -0.999052 -45.686227 -0.956306 -9.359523 -1.120714 -0.041304 2.311055 -0.000000 -0.000000 -0.000000 
